<svg xmlns="http://www.w3.org/2000/svg" xmlns:xlink="http://www.w3.org/1999/xlink" version="1.1" id="Layer_1" x="0px" y="0px" width="30px" height="30px" viewBox="5.0 -10.0 100.0 135.0" enable-background="new 0 0 100 100" xml:space="preserve">
<path style="fill:#fff;" d="M24.83,44.4c-1.561-1.562-1.561-4.09,0-5.66c1.57-1.561,4.109-1.561,5.67,0.01L50,58.2l19.5-19.45  c1.562-1.568,4.101-1.568,5.67-0.01c1.562,1.57,1.562,4.1,0,5.66L50,69.521L24.83,44.4z M100,50c0-27.609-22.391-50-50-50  C22.38,0,0,22.391,0,50s22.38,50,50,50C77.609,100,100,77.609,100,50z"/>
</svg>